<?xml version="1.0" standalone="no"?>
<!DOCTYPE svg PUBLIC "-//W3C//DTD SVG 20010904//EN"
 "http://www.w3.org/TR/2001/REC-SVG-20010904/DTD/svg10.dtd">
<svg version="1.0" xmlns="http://www.w3.org/2000/svg"
 width="232.000000pt" height="209.000000pt" viewBox="0 0 232.000000 209.000000"
 preserveAspectRatio="xMidYMid meet">

<g transform="translate(0.000000,209.000000) scale(0.100000,-0.100000)"
fill="#1c1627" stroke="none">
<path d="M1862 2014 c-82 -22 -151 -58 -224 -118 -85 -71 -133 -134 -153 -202
-8 -30 -20 -54 -25 -54 -17 0 -11 -162 9 -242 11 -41 57 -164 103 -274 137
-324 145 -352 123 -438 -8 -31 -25 -73 -39 -93 -32 -51 -114 -126 -167 -153
-53 -28 -153 -37 -189 -18 -80 42 -79 212 2 374 44 90 47 127 10 132 -33 5
-160 -126 -195 -200 -75 -157 -56 -311 44 -371 l39 -23 -28 -26 c-79 -75 -143
-85 -231 -38 -84 45 -281 280 -440 525 l-52 79 48 11 c132 31 251 111 383 256
125 140 180 210 231 297 47 80 51 75 8 -11 -47 -93 -113 -182 -208 -280 -46
-48 -78 -87 -70 -87 20 0 217 204 274 283 26 38 70 118 97 178 43 97 49 118
53 197 5 96 -5 140 -42 190 -42 56 -113 78 -166 51 -31 -16 -277 -261 -277
-276 0 -7 -46 -70 -103 -141 -103 -129 -151 -200 -202 -300 -14 -30 -28 -52
-31 -50 -2 3 7 38 21 78 14 40 23 75 21 77 -2 2 -21 -35 -42 -81 -21 -47 -39
-84 -41 -82 -5 5 79 218 125 318 50 107 137 263 167 300 34 40 40 90 16 136
-35 69 -74 64 -116 -16 -14 -26 -36 -61 -48 -77 -12 -17 -57 -112 -101 -210
-43 -99 -82 -187 -87 -195 -34 -58 -52 -100 -89 -210 -23 -69 -48 -149 -56
-179 -8 -29 -27 -83 -43 -120 -16 -36 -43 -127 -60 -201 -17 -74 -35 -151 -41
-170 -5 -19 -10 -59 -10 -87 0 -67 22 -93 80 -93 72 0 87 14 105 99 18 80 100
319 116 336 5 5 9 -1 9 -16 0 -24 110 -251 150 -309 9 -14 20 -37 24 -52 15
-63 237 -317 313 -356 36 -20 121 -14 170 10 59 29 179 156 188 198 6 27 11
31 28 26 52 -15 149 -18 213 -7 116 20 289 105 315 153 9 16 8 19 -3 12 -7 -4
4 12 25 36 64 75 92 143 95 235 5 100 -16 168 -90 292 -53 90 -93 181 -83 191
3 3 5 1 5 -4 0 -6 7 -19 15 -30 14 -18 15 -17 5 8 -5 15 -18 44 -28 65 -37 71
-62 173 -62 247 0 58 5 82 30 135 41 86 126 168 228 219 100 50 151 60 197 38
39 -19 50 -43 40 -94 -6 -36 -76 -177 -97 -197 -8 -7 -9 -5 -3 5 6 12 5 13 -5
3 -26 -24 -98 -158 -90 -167 20 -20 69 10 152 94 96 97 178 214 178 255 0 34
-26 94 -53 124 -28 30 -110 67 -191 86 -75 18 -106 18 -174 -1z m-786 -240
c17 -69 -51 -254 -145 -393 -128 -189 -324 -364 -434 -391 -18 -4 -41 -11 -51
-16 -14 -5 1 32 59 142 43 82 96 176 119 209 66 98 312 400 357 439 52 44 86
47 95 10z m45 -1131 c-6 -21 -11 -72 -12 -113 0 -51 -3 -69 -9 -55 -14 32 -11
107 6 164 17 60 31 64 15 4z"/>
</g>
</svg>
